<svg xmlns="http://www.w3.org/2000/svg" version="1.1" xmlns:xlink="http://www.w3.org/1999/xlink" width="512" height="512"><svg width="512" height="512" viewBox="0 0 512 512" xmlns="http://www.w3.org/2000/svg">
  <!-- Gradiente de fundo -->
  <defs>
    <linearGradient id="SvgjsLinearGradient1004" x1="0%" y1="0%" x2="100%" y2="100%">
      <stop offset="0%" style="stop-color:#667eea;stop-opacity:1"></stop>
      <stop offset="100%" style="stop-color:#764ba2;stop-opacity:1"></stop>
    </linearGradient>
    <linearGradient id="SvgjsLinearGradient1003" x1="0%" y1="0%" x2="0%" y2="100%">
      <stop offset="0%" style="stop-color:#ffffff;stop-opacity:1"></stop>
      <stop offset="100%" style="stop-color:#f0f0f0;stop-opacity:1"></stop>
    </linearGradient>
  </defs>
  
  <!-- Fundo com gradiente -->
  <rect width="512" height="512" rx="100" fill="url(#bgGradient)"></rect>
  
  <!-- Casa -->
  <g transform="translate(256, 256)">
    <!-- Telhado -->
    <path d="M -120,-80 L 0,-160 L 120,-80 Z" fill="#ff6b6b" stroke="#d63031" stroke-width="8" stroke-linejoin="round"></path>
    
    <!-- Corpo da casa -->
    <rect x="-100" y="-80" width="200" height="180" fill="url(#houseGradient)" stroke="#dfe6e9" stroke-width="6" rx="8"></rect>
    
    <!-- Porta -->
    <rect x="-30" y="20" width="60" height="80" fill="#667eea" rx="6"></rect>
    <circle cx="10" cy="65" r="5" fill="#ffd700"></circle>
    
    <!-- Janelas -->
    <rect x="-80" y="-40" width="35" height="35" fill="#74b9ff" stroke="#0984e3" stroke-width="3" rx="3"></rect>
    <line x1="-62.5" y1="-40" x2="-62.5" y2="-5" stroke="#0984e3" stroke-width="3"></line>
    <line x1="-80" y1="-22.5" x2="-45" y2="-22.5" stroke="#0984e3" stroke-width="3"></line>
    
    <rect x="45" y="-40" width="35" height="35" fill="#74b9ff" stroke="#0984e3" stroke-width="3" rx="3"></rect>
    <line x1="62.5" y1="-40" x2="62.5" y2="-5" stroke="#0984e3" stroke-width="3"></line>
    <line x1="45" y1="-22.5" x2="80" y2="-22.5" stroke="#0984e3" stroke-width="3"></line>
    
    <!-- Chaminé -->
    <rect x="60" y="-140" width="30" height="60" fill="#ff6b6b" stroke="#d63031" stroke-width="4"></rect>
    
    <!-- Carrinho de compras (sobreposto) -->
    <g transform="translate(90, 80) scale(0.8)">
      <!-- Corpo do carrinho -->
      <path d="M 0,0 L 10,-5 L 50,-5 L 55,25 L 5,25 Z" fill="#ffd700" stroke="#f39c12" stroke-width="4" stroke-linejoin="round"></path>
      
      <!-- Grade do carrinho -->
      <line x1="15" y1="-5" x2="12" y2="25" stroke="#f39c12" stroke-width="2"></line>
      <line x1="25" y1="-5" x2="22" y2="25" stroke="#f39c12" stroke-width="2"></line>
      <line x1="35" y1="-5" x2="32" y2="25" stroke="#f39c12" stroke-width="2"></line>
      <line x1="45" y1="-5" x2="42" y2="25" stroke="#f39c12" stroke-width="2"></line>
      
      <!-- Rodas -->
      <circle cx="15" cy="35" r="8" fill="#2d3436" stroke="#000000" stroke-width="2"></circle>
      <circle cx="15" cy="35" r="4" fill="#636e72"></circle>
      
      <circle cx="45" cy="35" r="8" fill="#2d3436" stroke="#000000" stroke-width="2"></circle>
      <circle cx="45" cy="35" r="4" fill="#636e72"></circle>
      
      <!-- Alça -->
      <path d="M 55,25 L 65,25 L 70,0 L 10,-5" fill="none" stroke="#f39c12" stroke-width="4" stroke-linecap="round"></path>
    </g>
    
    <!-- Lista/Checklist (no lado esquerdo) -->
    <g transform="translate(-110, 60) scale(0.5)">
      <rect x="0" y="0" width="60" height="80" fill="#ffffff" stroke="#667eea" stroke-width="4" rx="4"></rect>
      
      <!-- Linhas da lista -->
      <line x1="10" y1="15" x2="50" y2="15" stroke="#667eea" stroke-width="2"></line>
      <circle cx="10" cy="15" r="3" fill="#4CAF50"></circle>
      
      <line x1="10" y1="30" x2="50" y2="30" stroke="#667eea" stroke-width="2"></line>
      <circle cx="10" cy="30" r="3" fill="#4CAF50"></circle>
      
      <line x1="10" y1="45" x2="50" y2="45" stroke="#667eea" stroke-width="2"></line>
      <circle cx="10" cy="45" r="3" fill="#dfe6e9"></circle>
      
      <line x1="10" y1="60" x2="50" y2="60" stroke="#667eea" stroke-width="2"></line>
      <circle cx="10" cy="60" r="3" fill="#dfe6e9"></circle>
    </g>
  </g>
</svg><style>@media (prefers-color-scheme: light) { :root { filter: none; } }
@media (prefers-color-scheme: dark) { :root { filter: none; } }
</style></svg>